# xmcd CD database file
#
# Track frame offsets:
#	150
#	13681
#	28175
#	41671
#	54406
#	67364
#	79309
#	94146
#	108814
#	123017
#	136408
#	149515
#	164292
#	179769
#
# Disc length: 2575 seconds
#
# Revision: 1
# Processed by: cddbd v1.5.1PL0 Copyright (c) Steve Scherf et al.
# Submitted via: CDex 1.40Release
#
DISCID=c90a0d0e
DTITLE=Various Artist - that's blues CD 1
DYEAR=1999
DGENRE=Blues
TTITLE0=nobody knows you when you are down and out
TTITLE1=my black mama part1
TTITLE2=stack o'lee
TTITLE3=prison cell blues
TTITLE4=i'm so glad
TTITLE5=billy lyons and stackolee
TTITLE6=sitting on top of the world
TTITLE7=broke down engine
TTITLE8=shake it and brake it( but dont let it fall mama)
TTITLE9=you done lost your god thing now part 1
TTITLE10=how do you want it done
TTITLE11=baby you gotta change your mind
TTITLE12=black angels blues
TTITLE13=death letter blues
EXTD=YEAR: 1999 ID3G: 0
EXTT0=
EXTT1=
EXTT2=
EXTT3=
EXTT4=
EXTT5=
EXTT6=
EXTT7=
EXTT8=
EXTT9=
EXTT10=
EXTT11=
EXTT12=
EXTT13=
PLAYORDER=
